<svg xmlns="http://www.w3.org/2000/svg" viewBox="0 0 512 512" width="1024" height="1024" role="img" aria-labelledby="avatarTitle avatarDesc">
  <title id="avatarTitle">Playful geometric avatar</title>
  <desc id="avatarDesc">Rounded tile with gradient background featuring a stylized face with headphones.</desc>
  <defs>
    <linearGradient id="bg" x1="72" y1="56" x2="440" y2="472" gradientUnits="userSpaceOnUse">
      <stop offset="0" stop-color="#15B8FF" />
      <stop offset="0.45" stop-color="#4C5BD4" />
      <stop offset="1" stop-color="#1B1F3B" />
    </linearGradient>
    <radialGradient id="halo" cx="0" cy="0" r="1" gradientTransform="matrix(0 164 -164 0 256 256)" gradientUnits="userSpaceOnUse">
      <stop offset="0" stop-color="#FFFFFF" stop-opacity="0.23" />
      <stop offset="1" stop-color="#FFFFFF" stop-opacity="0" />
    </radialGradient>
    <linearGradient id="skin" x1="208" y1="138" x2="304" y2="268" gradientUnits="userSpaceOnUse">
      <stop offset="0" stop-color="#FFCF9F" />
      <stop offset="1" stop-color="#F59E68" />
    </linearGradient>
    <linearGradient id="shirt" x1="172" y1="308" x2="340" y2="396" gradientUnits="userSpaceOnUse">
      <stop offset="0" stop-color="#1E1E22" />
      <stop offset="1" stop-color="#3D3D47" />
    </linearGradient>
    <filter id="shadow" x="-10%" y="-10%" width="120%" height="120%" color-interpolation-filters="sRGB">
      <feDropShadow dx="0" dy="12" stdDeviation="18" flood-color="#050914" flood-opacity="0.4" />
    </filter>
  </defs>
  <rect width="512" height="512" rx="120" fill="url(#bg)" filter="url(#shadow)" />
  <circle cx="256" cy="256" r="164" fill="url(#halo)" />
  <path d="M168 338c0-48 40-88 88-88h0c48 0 88 40 88 88v56H168v-56z" fill="url(#shirt)" />
  <path d="M311 210c0 36-24.6 76-55 76s-55-40-55-76 24.6-64 55-64 55 28 55 64z" fill="url(#skin)" />
  <path d="M184 226c0-48 32-82 72-82h0c40 0 72 34 72 82v6c-10.1 7.5-27 12-44 12-17.3 0-34.2-4.6-44-12v-6z" fill="#1A1C2E" />
  <path d="M204 292c12 20 32 32 52 32s40-12 52-32" stroke="#0D0F21" stroke-width="10" stroke-linecap="round" opacity="0.35" />
  <circle cx="220" cy="236" r="10" fill="#1A1C2E" />
  <circle cx="292" cy="236" r="10" fill="#1A1C2E" />
  <path d="M236 272c6 4 14 6 20 6s14-2 20-6" stroke="#1A1C2E" stroke-width="8" stroke-linecap="round" />
  <path d="M152 238c0-34 22-52 54-52" stroke="#09D4FF" stroke-width="18" stroke-linecap="round" />
  <path d="M360 238c0-34-22-52-54-52" stroke="#09D4FF" stroke-width="18" stroke-linecap="round" />
  <path d="M178 354c28 30 54 42 78 42s50-12 78-42" stroke="#09D4FF" stroke-width="14" stroke-linecap="round" opacity="0.4" />
  <circle cx="148" cy="152" r="22" fill="#61F4FF" opacity="0.7" />
  <circle cx="364" cy="108" r="14" fill="#FF77C6" opacity="0.8" />
  <path d="M132 384c44 54 104 86 124 92 20-6 80-38 124-92" stroke="#5EEAD4" stroke-width="12" stroke-linecap="round" opacity="0.3" />
</svg>
